# xmcd
#
# Track frame offsets:
#	150
#	15971
#	33548
#	52186
#	71002
#	90621
#	108012
#	123860
#	144602
#	162203
#	181234
#	198713
#	215542
#	234132
#	253877
#	281602
#
# Disc length: 3763 seconds
#
# Revision: 1
# Processed by: cddbd v1.5.1PL2 Copyright (c) Steve Scherf et al.
# Submitted via: audiograbber 1.83.01
#
DISCID=e00eb110
DTITLE=Sound Choice - SC8943
DYEAR=2005
DGENRE=Karaoke
TTITLE0=McBride, Martina - I Never Promised You A Rose Garden
TTITLE1=Womack, Lee Ann - I May Hate Myself In The Morning
TTITLE2=Underwood, Carrie - Inside Your Heaven
TTITLE3=Twain, Shania - Don't
TTITLE4=Sugarland - Baby Girl
TTITLE5=McEntire, Reba - He Gets That From Me
TTITLE6=Messina, Jo Dee - My Give A Damn's Busted
TTITLE7=Hill, Faith and Tim McGraw - Like We Never Loved At All
TTITLE8=Womack, Lee Ann - He Oughta Know That By Now
TTITLE9=Evans, Sara - A Real Fine Place To Start
TTITLE10=O'Neal, Jamie - Somebody's Hero
TTITLE11=Wilson, Gretchen - All Jacked Up
TTITLE12=Hill, Faith - Mississippi Girl
TTITLE13=Wilson, Gretchen - When I Think About Cheatin'
TTITLE14=Twain, Shania and Billy Currington - Party For Two (Radio Version)
TTITLE15=Data - Data Track
EXTD=
EXTT0=
EXTT1=
EXTT2=
EXTT3=
EXTT4=
EXTT5=
EXTT6=
EXTT7=
EXTT8=
EXTT9=
EXTT10=
EXTT11=
EXTT12=
EXTT13=
EXTT14=
EXTT15=
PLAYORDER=
